<svg width="40" height="19" viewBox="0 0 40 19" fill="none" xmlns="http://www.w3.org/2000/svg">
<path fill-rule="evenodd" clip-rule="evenodd" d="M10.56 0.439992C10.2788 0.159091 9.8975 0.00131226 9.5 0.00131226C9.1025 0.00131226 8.72125 0.159091 8.44 0.439992L0.939999 7.93999C0.6591 8.22124 0.50132 8.60249 0.50132 8.99999C0.50132 9.39749 0.6591 9.77874 0.939999 10.06L8.44 17.56C8.57732 17.7074 8.74292 17.8256 8.92692 17.9076C9.11092 17.9895 9.30955 18.0336 9.51096 18.0372C9.71236 18.0407 9.91242 18.0037 10.0992 17.9282C10.286 17.8528 10.4556 17.7405 10.5981 17.5981C10.7405 17.4556 10.8528 17.286 10.9282 17.0992C11.0037 16.9124 11.0407 16.7124 11.0372 16.5109C11.0336 16.3095 10.9895 16.1109 10.9076 15.9269C10.8256 15.7429 10.7074 15.5773 10.56 15.44L5.62 10.5H38C38.3978 10.5 38.7794 10.342 39.0607 10.0607C39.342 9.77935 39.5 9.39782 39.5 8.99999C39.5 8.60217 39.342 8.22064 39.0607 7.93933C38.7794 7.65803 38.3978 7.49999 38 7.49999H5.62L10.56 2.55999C10.8409 2.27874 10.9987 1.89749 10.9987 1.49999C10.9987 1.10249 10.8409 0.721243 10.56 0.439992Z" fill="black"/>
</svg>
