<svg width="16" height="24" viewBox="0 0 16 24" fill="none" xmlns="http://www.w3.org/2000/svg">
<path d="M12.6701 5.77881C13.0199 5.67993 13.4987 5.54443 13.667 5.06451C14.2276 3.52056 14.8515 2.25256 15.5207 1.29528C15.735 0.988942 15.7289 0.597095 15.5055 0.297168C15.2829 -0.00184381 14.9104 -0.119215 14.5569 -0.00221007C11.5907 0.979421 9.24569 2.72131 7.58693 5.17474C6.20558 7.21784 5.59968 9.32319 5.33454 10.7298C5.14704 11.7237 5.29591 12.7692 5.75367 13.6738L6.80012 15.7418C6.70656 16.364 6.65108 16.9096 6.63551 17.3341H4.92182C4.26081 17.3341 3.72303 17.8719 3.72303 18.5327C3.72303 19.1479 4.18885 19.6564 4.78633 19.7238C4.57612 19.8452 4.25294 19.9648 3.75654 20.0428C2.84852 20.1856 2.18622 20.9462 2.16919 21.8583C2.16919 21.8615 2.16901 21.8648 2.16901 21.868V21.8753C2.16901 21.8817 2.16883 21.8881 2.16883 21.8943V23.0157H0.828126C0.569214 23.0157 0.359375 23.2255 0.359375 23.4844C0.359375 23.7433 0.569214 23.9532 0.828126 23.9532H14.282C14.5409 23.9532 14.7508 23.7433 14.7508 23.4844C14.7508 23.2255 14.5409 23.0157 14.282 23.0157H12.5478V21.8943C12.5478 21.8881 12.5478 21.8817 12.5476 21.8753C12.5476 21.8729 12.5476 21.8705 12.5476 21.8681C12.5476 21.8648 12.5475 21.8614 12.5475 21.8579C12.5302 20.9458 11.8679 20.1856 10.9601 20.0428C10.4637 19.9648 10.1405 19.8452 9.93032 19.7238C10.5278 19.6564 10.9936 19.1479 10.9936 18.5327C10.9936 17.8719 10.4558 17.3341 9.79482 17.3341H7.57155C7.58473 16.9864 7.62886 16.5421 7.7021 16.0335L10.1001 14.3399C10.6668 13.9397 11.0976 13.3561 11.3128 12.6965C11.6927 11.5327 12.2878 9.64344 12.9662 7.2508C13.1365 6.70587 12.7661 6.33783 12.5443 6.11755C12.4781 6.05164 12.3691 5.94342 12.348 5.89307C12.3484 5.8916 12.349 5.88995 12.3497 5.88794C12.4136 5.85132 12.5718 5.80664 12.6701 5.77881ZM3.10633 23.0157V22.1741H11.6103V23.0157H3.10633ZM11.3408 21.2366H3.37586C3.51319 21.0982 3.69501 21.0015 3.90229 20.9689C4.81141 20.8259 5.45631 20.521 5.81886 20.0629C5.90968 19.9479 5.97322 19.8353 6.01735 19.7313H8.6993C8.74343 19.8351 8.80696 19.9479 8.89778 20.0629C9.26033 20.521 9.90505 20.8259 10.8144 20.9689C11.0216 21.0015 11.2035 21.0982 11.3408 21.2366ZM10.0561 18.5327C10.0561 18.6768 9.93892 18.794 9.795 18.794H4.92164C4.77772 18.794 4.66053 18.6768 4.66053 18.5327C4.66053 18.3888 4.77772 18.2716 4.92164 18.2716H7.10463H7.10664H7.10921H9.795C9.93892 18.2716 10.0561 18.3888 10.0561 18.5327ZM11.8835 6.7826C11.9465 6.84503 12.0388 6.93659 12.067 6.98603C12.0668 6.98676 12.0664 6.98749 12.0662 6.98822C11.3911 9.3697 10.7993 11.2487 10.4216 12.4056C10.2687 12.8745 9.96236 13.2894 9.55935 13.5742L7.92806 14.7263C8.21077 13.3065 8.65206 11.6578 9.22481 10.2206C9.32076 9.98017 9.20357 9.70753 8.96297 9.61158C8.72255 9.51563 8.44991 9.633 8.35396 9.87342C7.80061 11.2619 7.36958 12.8192 7.07716 14.2128L6.5901 13.2504C6.22517 12.5292 6.10652 11.6957 6.25575 10.9034C6.50441 9.58393 7.07222 7.61005 8.36348 5.69989C9.85799 3.48944 11.9578 1.89934 14.6074 0.970815C13.9473 1.96471 13.3357 3.23107 12.7873 4.74005C12.7313 4.78729 12.5344 4.84295 12.4151 4.87665C12.0765 4.97241 11.6145 5.10315 11.4699 5.56421C11.2525 6.15564 11.6623 6.56269 11.8835 6.7826Z" fill="black"/>
</svg>
