<svg width="24" height="20" viewBox="0 0 24 20" fill="none" xmlns="http://www.w3.org/2000/svg">
<path d="M23.3187 3.72597C23.2736 3.72442 22.3467 3.69313 20.986 3.7232V0.933454C20.986 0.522207 20.6349 0.196042 20.2214 0.230019C17.5084 0.456513 14.0567 1.65534 12 3.84193C9.94334 1.65534 6.49162 0.456513 3.77859 0.230019C3.36588 0.196419 3.01398 0.521124 3.01398 0.933454V3.79863C2.24089 3.76945 1.50965 3.74889 0.726824 3.72588C0.332 3.71341 0 4.03143 0 4.43143V17.2865C0 17.658 0.287859 17.9659 0.658494 17.9908C3.4664 18.1798 8.16988 18.201 11.7231 19.7165C12.0398 19.8518 12.324 19.6964 12.277 19.7165C15.8301 18.2011 20.5328 18.1799 23.3416 17.9908C23.7122 17.9659 24.0001 17.658 24.0001 17.2865V4.43143C24 4.05115 23.6988 3.73924 23.3187 3.72597ZM19.5743 1.72738V13.8256C17.5387 14.281 14.959 15.2527 12.7059 17.3129C12.7059 16.6915 12.7059 5.51553 12.7059 5.17943C14.2504 3.25237 17.1753 2.09087 19.5743 1.72738ZM4.42574 1.72738C6.82466 2.09087 9.74965 3.25237 11.2941 5.17943V17.3129C9.04104 15.2527 6.46132 14.281 4.42574 13.8256V1.72738ZM1.41176 16.6223V5.1584C1.91722 5.17336 2.45784 5.19026 3.01398 5.21148V14.401C3.01398 14.7406 3.25586 15.0321 3.58965 15.0947C5.20146 15.3973 7.29746 16.0539 9.25097 17.4679C6.46391 16.8428 3.54664 16.7423 1.41176 16.6223ZM22.5882 16.6223C20.4568 16.7421 17.5372 16.8425 14.749 17.4679C16.7025 16.0539 18.7985 15.3973 20.4103 15.0947C20.7441 15.0321 20.986 14.7406 20.986 14.401V5.13543C21.6357 5.12089 22.189 5.1207 22.5882 5.12433V16.6223H22.5882Z" fill="black"/>
</svg>
