<svg width="137" height="42" viewBox="0 0 137 42" fill="none" xmlns="http://www.w3.org/2000/svg">
<path d="M62.7438 0H70.8109L28.9389 42H21.1279L62.7438 0Z" fill="url(#paint0_linear_100_39)"/>
<path d="M60.9509 23.0488L66.9692 25.6098L50.1948 42H42.3838L60.9509 23.0488Z" fill="url(#paint1_linear_100_39)"/>
<path d="M41.6159 0L45.4573 4.22561L7.81098 42H0L41.6159 0Z" fill="url(#paint2_linear_100_39)"/>
<path d="M41.6156 0L37.518 4.09756L75.4205 42H83.2314L41.6156 0Z" fill="url(#paint3_linear_100_39)"/>
<path d="M101.55 18.8975C101.584 18.9996 101.72 19.0506 101.958 19.0506V19.3738H98.5052V19.0506C98.6526 19.0506 98.7547 19.0166 98.8114 18.9485C98.8681 18.8805 98.8794 18.8125 98.8454 18.7444L97.9099 16.3461H92.3648L91.4292 18.7444L91.4122 18.7955C91.4122 18.8635 91.4406 18.9259 91.4973 18.9826C91.5653 19.0279 91.6504 19.0506 91.7524 19.0506V19.3738H88.4015V19.0506C88.6283 19.0506 88.7644 18.9996 88.8098 18.8975L93.5384 7.39905C93.5724 7.33101 93.5895 7.26864 93.5895 7.21194C93.5895 7.10989 93.5441 7.04185 93.4534 7.00783C93.3627 6.96247 93.2663 6.93979 93.1642 6.93979V6.61661H97.1274V6.93979C97.0254 6.93979 96.929 6.96247 96.8383 7.00783C96.7476 7.04185 96.7022 7.10989 96.7022 7.21194C96.7022 7.26864 96.7192 7.33101 96.7532 7.39905L101.55 18.8975ZM95.1373 9.2701L93.1302 14.39H97.1445L95.1373 9.2701ZM116.071 6.93979H115.867C115.686 6.93979 115.578 6.96247 115.544 7.00783L110.815 12.9612L115.289 18.9655C115.334 19.0222 115.425 19.0506 115.561 19.0506C115.708 19.0506 115.788 19.0506 115.799 19.0506V19.3738H112.193V19.0506C112.329 19.0506 112.397 19.0222 112.397 18.9655C112.397 18.9429 112.375 18.8975 112.329 18.8295L109.335 14.9173L106.325 18.8295C106.302 18.8748 106.291 18.9032 106.291 18.9145C106.291 18.9485 106.319 18.9826 106.376 19.0166C106.444 19.0393 106.529 19.0506 106.631 19.0506V19.3738H102.872V19.0506H102.991C103.195 19.0506 103.325 19.0222 103.382 18.9655L107.805 13.0973L103.382 7.02484C103.337 6.96814 103.24 6.93979 103.093 6.93979C102.957 6.93979 102.883 6.93979 102.872 6.93979V6.61661H106.172V6.93979C106.036 6.93979 105.968 6.96247 105.968 7.00783C105.968 7.01917 105.979 7.04185 106.002 7.07587C106.024 7.10989 106.041 7.13257 106.053 7.14391L109.352 11.3283L112.601 7.16091C112.624 7.11556 112.635 7.08721 112.635 7.07587C112.635 6.98515 112.528 6.93979 112.312 6.93979V6.61661H116.071V6.93979ZM130.125 18.8975C130.159 18.9996 130.295 19.0506 130.533 19.0506V19.3738H127.08V19.0506C127.228 19.0506 127.33 19.0166 127.387 18.9485C127.443 18.8805 127.455 18.8125 127.421 18.7444L126.485 16.3461H120.94L120.004 18.7444L119.987 18.7955C119.987 18.8635 120.016 18.9259 120.072 18.9826C120.14 19.0279 120.226 19.0506 120.328 19.0506V19.3738H116.977V19.0506C117.204 19.0506 117.34 18.9996 117.385 18.8975L122.114 7.39905C122.148 7.33101 122.165 7.26864 122.165 7.21194C122.165 7.10989 122.119 7.04185 122.029 7.00783C121.938 6.96247 121.841 6.93979 121.739 6.93979V6.61661H125.703V6.93979C125.601 6.93979 125.504 6.96247 125.413 7.00783C125.323 7.04185 125.277 7.10989 125.277 7.21194C125.277 7.26864 125.294 7.33101 125.328 7.39905L130.125 18.8975ZM123.713 9.2701L121.705 14.39H125.72L123.713 9.2701Z" fill="#2E544F"/>
<path d="M84.2826 33.6262V26.3535H86.5233C86.985 26.3535 87.3804 26.4482 87.7094 26.6376C88.0409 26.827 88.2954 27.0862 88.4729 27.4153C88.6505 27.7444 88.7393 28.1196 88.7393 28.541C88.7393 28.9577 88.6505 29.3305 88.4729 29.6596C88.2954 29.9887 88.0409 30.2491 87.7094 30.4409C87.3804 30.6302 86.9862 30.7249 86.5269 30.7249H84.5951V30.313H86.5162C86.8903 30.313 87.2099 30.2373 87.4751 30.0857C87.7402 29.9319 87.9438 29.7223 88.0858 29.4572C88.2279 29.1897 88.2989 28.8843 88.2989 28.541C88.2989 28.1953 88.2279 27.8888 88.0858 27.6212C87.9438 27.3537 87.739 27.1442 87.4715 26.9927C87.2064 26.8412 86.8867 26.7654 86.5127 26.7654H84.7265V33.6262H84.2826ZM90.859 33.6262V28.1717H91.2816V29.0239H91.3206C91.439 28.7446 91.639 28.5209 91.9208 28.3528C92.2025 28.1823 92.5233 28.0971 92.8831 28.0971C92.921 28.0971 92.9589 28.0971 92.9968 28.0971C93.0346 28.0971 93.0702 28.0983 93.1033 28.1007V28.5374C93.0749 28.5351 93.0406 28.5315 93.0003 28.5268C92.9624 28.5197 92.9151 28.5161 92.8583 28.5161C92.5552 28.5161 92.2854 28.5812 92.0486 28.7114C91.8142 28.8417 91.6296 29.0216 91.4946 29.2512C91.3597 29.4785 91.2922 29.7389 91.2922 30.0325V33.6262H90.859ZM96.6958 33.7399C96.246 33.7399 95.8459 33.6191 95.4956 33.3776C95.1452 33.1338 94.8694 32.7988 94.6681 32.3727C94.4669 31.9465 94.3663 31.4612 94.3663 30.9167C94.3663 30.3698 94.4669 29.8845 94.6681 29.4607C94.8694 29.0346 95.1452 28.6996 95.4956 28.4558C95.8459 28.2119 96.246 28.09 96.6958 28.09C97.1457 28.09 97.5458 28.2119 97.8961 28.4558C98.2465 28.6996 98.5223 29.0346 98.7235 29.4607C98.9248 29.8869 99.0254 30.3722 99.0254 30.9167C99.0254 31.4612 98.9248 31.9465 98.7235 32.3727C98.5223 32.7988 98.2465 33.1338 97.8961 33.3776C97.5458 33.6191 97.1457 33.7399 96.6958 33.7399ZM96.6958 33.3386C97.077 33.3386 97.4096 33.2309 97.6937 33.0154C97.9802 32.8 98.2015 32.5088 98.3578 32.1418C98.5164 31.7749 98.5957 31.3665 98.5957 30.9167C98.5957 30.4669 98.5164 30.0597 98.3578 29.6951C98.1992 29.3282 97.9778 29.037 97.6937 28.8215C97.4096 28.6037 97.077 28.4948 96.6958 28.4948C96.3147 28.4948 95.9821 28.6037 95.698 28.8215C95.4139 29.037 95.1925 29.3282 95.0339 29.6951C94.8753 30.0597 94.796 30.4669 94.796 30.9167C94.796 31.3665 94.8741 31.7749 95.0304 32.1418C95.189 32.5088 95.4103 32.8 95.6944 33.0154C95.9809 33.2309 96.3147 33.3386 96.6958 33.3386ZM101.085 35.6717V28.1717H101.507V29.3897H101.561C101.646 29.1553 101.765 28.9399 101.919 28.7434C102.076 28.5469 102.268 28.3895 102.498 28.2711C102.73 28.1504 103.002 28.09 103.315 28.09C103.755 28.09 104.139 28.2107 104.465 28.4522C104.792 28.6937 105.045 29.0275 105.225 29.4536C105.405 29.8774 105.495 30.3639 105.495 30.9132C105.495 31.4624 105.404 31.9501 105.222 32.3762C105.042 32.8 104.789 33.1338 104.462 33.3776C104.138 33.6191 103.758 33.7399 103.322 33.7399C103.012 33.7399 102.74 33.6807 102.505 33.5623C102.273 33.4439 102.078 33.2865 101.919 33.09C101.763 32.8911 101.643 32.6733 101.561 32.4366H101.518V35.6717H101.085ZM101.511 30.9096C101.511 31.3736 101.582 31.7891 101.724 32.1561C101.866 32.5206 102.07 32.8095 102.335 33.0225C102.6 33.2332 102.916 33.3386 103.283 33.3386C103.655 33.3386 103.973 33.232 104.238 33.019C104.506 32.8035 104.709 32.5123 104.849 32.1454C104.991 31.7784 105.062 31.3665 105.062 30.9096C105.062 30.4527 104.992 30.0419 104.853 29.6774C104.713 29.3128 104.51 29.0251 104.245 28.8144C103.98 28.6014 103.659 28.4948 103.283 28.4948C102.911 28.4948 102.593 28.6002 102.328 28.8109C102.065 29.0192 101.862 29.3057 101.72 29.6703C101.581 30.0325 101.511 30.4456 101.511 30.9096ZM109.687 33.7399C109.195 33.7399 108.766 33.6179 108.402 33.3741C108.037 33.1302 107.755 32.7964 107.556 32.3727C107.358 31.9489 107.258 31.4659 107.258 30.9238C107.258 30.3793 107.358 29.894 107.556 29.4678C107.758 29.0417 108.033 28.7055 108.384 28.4593C108.734 28.2131 109.134 28.09 109.584 28.09C109.889 28.09 110.178 28.1516 110.451 28.2747C110.725 28.3954 110.967 28.5706 111.175 28.8002C111.386 29.0299 111.55 29.3069 111.669 29.6312C111.789 29.9555 111.85 30.3201 111.85 30.7249V30.9948H107.532V30.6007H111.416C111.416 30.2053 111.336 29.849 111.175 29.5318C111.014 29.2145 110.795 28.9624 110.518 28.7754C110.241 28.5883 109.93 28.4948 109.584 28.4948C109.222 28.4948 108.899 28.5966 108.615 28.8002C108.333 29.0015 108.109 29.2737 107.943 29.617C107.78 29.9603 107.695 30.3438 107.688 30.7676V30.9451C107.688 31.3997 107.767 31.808 107.926 32.1703C108.087 32.5301 108.316 32.8154 108.615 33.0261C108.913 33.2344 109.27 33.3386 109.687 33.3386C109.985 33.3386 110.24 33.2889 110.451 33.1894C110.664 33.0876 110.838 32.9645 110.973 32.8201C111.108 32.6757 111.209 32.536 111.278 32.4011L111.672 32.5609C111.589 32.7432 111.46 32.9255 111.285 33.1078C111.112 33.2877 110.892 33.438 110.625 33.5587C110.359 33.6795 110.047 33.7399 109.687 33.7399ZM113.908 33.6262V28.1717H114.331V29.0239H114.37C114.488 28.7446 114.688 28.5209 114.97 28.3528C115.252 28.1823 115.572 28.0971 115.932 28.0971C115.97 28.0971 116.008 28.0971 116.046 28.0971C116.084 28.0971 116.119 28.0983 116.152 28.1007V28.5374C116.124 28.5351 116.09 28.5315 116.05 28.5268C116.012 28.5197 115.964 28.5161 115.907 28.5161C115.604 28.5161 115.335 28.5812 115.098 28.7114C114.863 28.8417 114.679 29.0216 114.544 29.2512C114.409 29.4785 114.341 29.7389 114.341 30.0325V33.6262H113.908ZM120.153 28.1717V28.5587H117.771V28.1717H120.153ZM118.577 26.8649H119.006V32.3372C119.006 32.5597 119.049 32.742 119.134 32.884C119.222 33.0237 119.335 33.1279 119.475 33.1965C119.617 33.2628 119.769 33.296 119.93 33.296C120.008 33.296 120.075 33.29 120.132 33.2782C120.191 33.2664 120.247 33.251 120.299 33.232L120.406 33.6262C120.339 33.6499 120.266 33.67 120.185 33.6866C120.105 33.7055 120.01 33.715 119.901 33.715C119.674 33.715 119.459 33.6641 119.255 33.5623C119.054 33.4605 118.89 33.3125 118.765 33.1184C118.639 32.9243 118.577 32.6899 118.577 32.4153V26.8649ZM122.349 33.6262V28.1717H122.778V33.6262H122.349ZM122.565 27.2058C122.471 27.2058 122.388 27.1726 122.317 27.1063C122.248 27.04 122.214 26.9596 122.214 26.8649C122.214 26.7702 122.248 26.6897 122.317 26.6234C122.385 26.5571 122.468 26.5239 122.565 26.5239C122.66 26.5239 122.742 26.5571 122.81 26.6234C122.881 26.6897 122.917 26.7702 122.917 26.8649C122.917 26.9596 122.882 27.04 122.814 27.1063C122.745 27.1726 122.662 27.2058 122.565 27.2058ZM127.287 33.7399C126.795 33.7399 126.366 33.6179 126.002 33.3741C125.637 33.1302 125.355 32.7964 125.156 32.3727C124.957 31.9489 124.858 31.4659 124.858 30.9238C124.858 30.3793 124.957 29.894 125.156 29.4678C125.358 29.0417 125.633 28.7055 125.984 28.4593C126.334 28.2131 126.734 28.09 127.184 28.09C127.489 28.09 127.778 28.1516 128.051 28.2747C128.325 28.3954 128.567 28.5706 128.775 28.8002C128.986 29.0299 129.15 29.3069 129.269 29.6312C129.389 29.9555 129.45 30.3201 129.45 30.7249V30.9948H125.131V30.6007H129.016C129.016 30.2053 128.936 29.849 128.775 29.5318C128.614 29.2145 128.395 28.9624 128.118 28.7754C127.841 28.5883 127.53 28.4948 127.184 28.4948C126.822 28.4948 126.499 28.5966 126.215 28.8002C125.933 29.0015 125.709 29.2737 125.543 29.617C125.38 29.9603 125.295 30.3438 125.288 30.7676V30.9451C125.288 31.3997 125.367 31.808 125.526 32.1703C125.687 32.5301 125.916 32.8154 126.215 33.0261C126.513 33.2344 126.87 33.3386 127.287 33.3386C127.585 33.3386 127.84 33.2889 128.051 33.1894C128.264 33.0876 128.438 32.9645 128.573 32.8201C128.707 32.6757 128.809 32.536 128.878 32.4011L129.272 32.5609C129.189 32.7432 129.06 32.9255 128.885 33.1078C128.712 33.2877 128.492 33.438 128.225 33.5587C127.959 33.6795 127.647 33.7399 127.287 33.7399ZM134.974 29.3471L134.573 29.4536C134.509 29.2548 134.418 29.0831 134.299 28.9387C134.181 28.7943 134.032 28.683 133.852 28.6049C133.674 28.5244 133.461 28.4842 133.213 28.4842C132.813 28.4842 132.485 28.5836 132.229 28.7825C131.976 28.9813 131.849 29.2406 131.849 29.5602C131.849 29.8206 131.935 30.036 132.108 30.2065C132.281 30.3746 132.545 30.5024 132.9 30.59L133.738 30.7995C134.169 30.9061 134.493 31.0789 134.711 31.318C134.929 31.5547 135.038 31.8495 135.038 32.2022C135.038 32.5029 134.956 32.7692 134.793 33.0012C134.63 33.2332 134.404 33.4143 134.115 33.5445C133.828 33.6748 133.494 33.7399 133.113 33.7399C132.604 33.7399 132.186 33.6215 131.86 33.3847C131.533 33.1456 131.323 32.8035 131.231 32.3585L131.647 32.2519C131.725 32.607 131.887 32.8781 132.133 33.0651C132.382 33.2498 132.707 33.3421 133.11 33.3421C133.555 33.3421 133.913 33.2368 134.186 33.0261C134.46 32.8154 134.598 32.5455 134.598 32.2164C134.598 31.9655 134.517 31.7536 134.356 31.5808C134.195 31.4079 133.951 31.2813 133.625 31.2008L132.755 30.9877C132.31 30.8788 131.976 30.7048 131.753 30.4657C131.531 30.2242 131.419 29.9271 131.419 29.5744C131.419 29.2808 131.496 29.0228 131.65 28.8002C131.804 28.5777 132.016 28.4037 132.286 28.2782C132.556 28.1527 132.865 28.09 133.213 28.09C133.674 28.09 134.051 28.1989 134.342 28.4167C134.633 28.6345 134.844 28.9446 134.974 29.3471Z" fill="#2E544F"/>
<defs>
<linearGradient id="paint0_linear_100_39" x1="26.1218" y1="42" x2="66.7133" y2="-4.69302e-07" gradientUnits="userSpaceOnUse">
<stop stop-color="#E1B463"/>
<stop offset="0.585803" stop-color="#B79651"/>
<stop offset="1" stop-color="#D7B362"/>
</linearGradient>
<linearGradient id="paint1_linear_100_39" x1="61.335" y1="27.7866" x2="47.2496" y2="42" gradientUnits="userSpaceOnUse">
<stop stop-color="#BB9454"/>
<stop offset="1" stop-color="#CFAA5B"/>
</linearGradient>
<linearGradient id="paint2_linear_100_39" x1="40.2073" y1="6.40244" x2="3.96951" y2="42" gradientUnits="userSpaceOnUse">
<stop stop-color="#C7A253"/>
<stop offset="1" stop-color="#DAB668"/>
</linearGradient>
<linearGradient id="paint3_linear_100_39" x1="39.1827" y1="3.13708e-06" x2="80.2863" y2="42" gradientUnits="userSpaceOnUse">
<stop stop-color="#E1B461"/>
<stop offset="1" stop-color="#DBB75F"/>
</linearGradient>
</defs>
</svg>
